Coordinates
version=1
nRows=10
nColumns=63
inDegrees=yes

Units are S.I. units (second, meters, Newtons, ...)
If the header above contains a line with 'inDegrees', this indicates whether rotational values are in degrees (yes) or radians (no).

endheader
time	pelvis_tilt	pelvis_list	pelvis_rotation	pelvis_tx	pelvis_ty	pelvis_tz	hip_flexion_r	hip_adduction_r	hip_rotation_r	knee_angle_r	knee_angle_r_beta	ankle_angle_r	subtalar_angle_r	mtp_angle_r	hip_flexion_l	hip_adduction_l	hip_rotation_l	knee_angle_l	knee_angle_l_beta	ankle_angle_l	subtalar_angle_l	mtp_angle_l	L5_S1_Flex_Ext	L5_S1_Lat_Bending	L5_S1_axial_rotation	L4_L5_Flex_Ext	L4_L5_Lat_Bending	L4_L5_axial_rotation	L3_L4_Flex_Ext	L3_L4_Lat_Bending	L3_L4_axial_rotation	L2_L3_Flex_Ext	L2_L3_Lat_Bending	L2_L3_axial_rotation	L1_L2_Flex_Ext	L1_L2_Lat_Bending	L1_L2_axial_rotation	L1_T12_Flex_Ext	L1_T12_Lat_Bending	L1_T12_axial_rotation	Abs_r3	Abs_r2	Abs_r1	Abs_t1	Abs_t2	neck_flexion	neck_bending	neck_rotation	arm_flex_r	arm_add_r	arm_rot_r	elbow_flex_r	pro_sup_r	wrist_flex_r	wrist_dev_r	arm_flex_l	arm_add_l	arm_rot_l	elbow_flex_l	pro_sup_l	wrist_flex_l	wrist_dev_l
      3.75000000	    -40.65779377	      6.25562977	      2.18876648	     -0.15540681	      1.01261922	      0.04229099	     74.65103269	     -7.37188798	      2.17613802	     57.78693593	      1.00857230	      4.61069660	    -15.01303301	      0.00000000	    117.22424251	     -3.89108408	     -3.75128616	    103.45102903	      1.80556107	      9.34264867	    -16.95663583	      0.00000000	     -0.05198454	     -1.14164452	     -0.31792664	     -0.09654048	     -1.51838721	     -0.33779706	     -0.08540539	     -2.77579449	     -0.33779706	     -0.05941313	     -2.77579449	     -0.27818581	     -0.04827284	     -2.32804151	     -0.25831540	     -0.02970396	     -1.76840736	     -0.23844498	     -0.37132034	    -12.91451116	     -1.76821260	      0.00000000	      0.00000000	     -0.00000000	      0.00000000	      0.00000000	     67.67510487	     -8.83938400	     20.48504222	     33.50518939	     52.03962580	      0.00000000	      5.00000014	     72.07519304	    -12.14792637	     34.20901822	     36.28607219	     60.59947550	      0.00000000	      5.00000014
      3.75800000	    -40.64035082	      6.17547437	      2.00283680	     -0.15522840	      1.01279042	      0.04257872	     75.29079616	     -7.20345607	      2.40603687	     59.93736646	      1.04610439	      4.88853758	    -14.66353620	      0.00000000	    116.69801574	     -3.85949077	     -3.58084351	    102.05879477	      1.78126200	      9.09993143	    -16.97336624	      0.00000000	     -0.05061230	     -1.13917499	     -0.28342814	     -0.09399210	     -1.51510274	     -0.30114239	     -0.08315095	     -2.76979007	     -0.30114239	     -0.05784480	     -2.76979007	     -0.24799962	     -0.04699858	     -2.32300564	     -0.23028536	     -0.02891987	     -1.76458206	     -0.21257110	     -0.36151859	    -12.88657532	     -1.57634226	      0.00000000	      0.00000000	     -0.00000000	      0.00000000	      0.00000000	     67.52109131	     -9.01385065	     20.52579792	     33.63514638	     52.08450099	      0.00000000	      5.00000014	     72.09267725	    -12.08342281	     34.24385514	     36.20615381	     60.65429283	      0.00000000	      5.00000014
      3.76700000	    -40.64875360	      6.29017590	      1.84595013	     -0.15514694	      1.01311748	      0.04286369	     75.98514161	     -7.19704680	      2.74379843	     62.04011655	      1.08280430	      5.53462994	    -13.61993679	      0.00000000	    116.04920487	     -3.89479194	     -3.60861694	    100.50996958	      1.75422990	      8.86698077	    -16.97041941	      0.00000000	     -0.05140581	     -1.15940574	     -0.25585796	     -0.09546573	     -1.54200963	     -0.27184908	     -0.08445460	     -2.81897911	     -0.27184908	     -0.05875170	     -2.81897911	     -0.22387571	     -0.04773543	     -2.36426018	     -0.20788459	     -0.02937328	     -1.79591949	     -0.19189347	     -0.36718655	    -13.11542960	     -1.42300519	      0.00000000	      0.00000000	     -0.00000000	      0.00000000	      0.00000000	     67.42188062	     -9.11873788	     20.61110428	     33.76805538	     51.96736858	      0.00000000	      5.00000014	     72.15915329	    -12.00769016	     34.29437226	     36.00858186	     60.28745867	      0.00000000	      5.00000014
      3.77500000	    -40.61384486	      6.17996758	      1.54699590	     -0.15494330	      1.01325973	      0.04318438	     76.64888104	     -6.93728892	      2.91433528	     64.16821483	      1.11994662	      5.79882574	    -13.18892458	      0.00000000	    115.41400291	     -3.99769113	     -3.33115553	     99.08265140	      1.72931850	      8.61936392	    -16.99312658	      0.00000000	     -0.05218374	     -1.14834885	     -0.20277897	     -0.09691043	     -1.52730397	     -0.21545266	     -0.08573267	     -2.79209539	     -0.21545266	     -0.05964080	     -2.79209539	     -0.17743160	     -0.04845782	     -2.34171297	     -0.16475791	     -0.02981779	     -1.77879237	     -0.15208423	     -0.37274325	    -12.99035184	     -1.12779581	      0.00000000	      0.00000000	     -0.00000000	      0.00000000	      0.00000000	     67.33205678	     -9.29913620	     20.70922359	     33.88041661	     51.96916014	      0.00000000	      5.00000014	     72.11977572	    -11.95974893	     34.25773938	     35.99728847	     60.20025409	      0.00000000	      5.00000014
      3.78300000	    -40.56641734	      6.07833952	      1.21622522	     -0.15471604	      1.01335433	      0.04346618	     77.34071865	     -6.68022200	      3.02631939	     66.32533506	      1.15759547	      6.03696980	    -12.82440317	      0.00000000	    114.74031894	     -4.13342947	     -3.02832459	     97.65495185	      1.70440044	      8.27124039	    -17.06434621	      0.00000000	     -0.05232032	     -1.13449238	     -0.14737189	     -0.09716408	     -1.50887487	     -0.15658264	     -0.08595706	     -2.75840478	     -0.15658264	     -0.05979690	     -2.75840478	     -0.12895041	     -0.04858465	     -2.31345686	     -0.11973966	     -0.02989583	     -1.75732870	     -0.11052892	     -0.37371885	    -12.83360471	     -0.81963826	      0.00000000	      0.00000000	     -0.00000000	      0.00000000	      0.00000000	     67.27611379	     -9.43526349	     20.89116649	     33.92673735	     51.88469126	      0.00000000	      5.00000014	     72.03433532	    -11.91383496	     34.07765484	     35.94274916	     59.87172173	      0.00000000	      5.00000014
      3.79200000	    -40.49698712	      5.94085825	      0.82427186	     -0.15443628	      1.01339258	      0.04372392	     77.99296860	     -6.38835128	      3.03301634	     68.41535791	      1.19407325	      6.32528579	    -12.55214904	      0.00000000	    113.97819306	     -4.36091819	     -2.71442254	     96.21263065	      1.67922719	      8.29689939	    -17.01164153	      0.00000000	     -0.05330488	     -1.11178261	     -0.08346720	     -0.09899250	     -1.47867086	     -0.08868389	     -0.08757459	     -2.70318823	     -0.08868389	     -0.06092215	     -2.70318823	     -0.07303380	     -0.04949891	     -2.26714709	     -0.06781710	     -0.03045841	     -1.72215126	     -0.06260040	     -0.38075144	    -12.57670719	     -0.46421950	      0.00000000	      0.00000000	     -0.00000000	      0.00000000	      0.00000000	     67.24875039	     -9.53327884	     21.07073180	     33.93365680	     51.64202141	      0.00000000	      5.00000014	     71.90771293	    -11.88232740	     33.85438837	     35.89716593	     59.21015317	      0.00000000	      5.00000014
      3.80000000	    -40.42298530	      5.84316195	      0.48666747	     -0.15412659	      1.01332639	      0.04384072	     78.71913644	     -6.13142619	      3.11948515	     70.59528236	      1.23212011	      6.26574042	    -12.56970491	      0.00000000	    113.22377404	     -4.55036410	     -2.46270413	     94.77047102	      1.65405675	      7.81597319	    -17.22623060	      0.00000000	     -0.05366190	     -1.09137695	     -0.02953930	     -0.09965551	     -1.45153135	     -0.03138551	     -0.08816113	     -2.65357393	     -0.03138551	     -0.06133018	     -2.65357393	     -0.02584689	     -0.04983044	     -2.22553589	     -0.02400068	     -0.03066241	     -1.69054290	     -0.02215448	     -0.38330156	    -12.34587439	     -0.16428874	      0.00000000	      0.00000000	     -0.00000000	      0.00000000	      0.00000000	     67.22569017	     -9.65518037	     21.43796963	     34.01544515	     51.39986115	      0.00000000	      5.00000014	     71.74220260	    -11.85585232	     33.53730629	     35.89901664	     58.49865550	      0.00000000	      5.00000014
      3.80800000	    -40.36273725	      5.76571966	      0.14410250	     -0.15382177	      1.01318822	      0.04387063	     79.48849130	     -5.87017388	      3.15174087	     72.74387706	      1.26962017	      5.85173048	    -13.35213927	      0.00000000	    112.43332260	     -4.78597699	     -2.28895199	     93.28697476	      1.62816486	      7.38418052	    -17.37446592	      0.00000000	     -0.05221558	     -1.06945173	      0.02357738	     -0.09696955	     -1.42237080	      0.02505096	     -0.08578497	     -2.60026494	      0.02505096	     -0.05967718	     -2.60026494	      0.02063020	     -0.04848738	     -2.18082597	      0.01915662	     -0.02983598	     -1.65658073	      0.01768303	     -0.37297064	    -12.09785187	      0.13113029	      0.00000000	      0.00000000	     -0.00000000	      0.00000000	      0.00000000	     67.23867407	     -9.88701945	     22.22447848	     34.26417865	     51.33896417	      0.00000000	      5.00000014	     71.50020925	    -11.89001961	     33.06171870	     36.09331093	     57.98353919	      0.00000000	      5.00000014
      3.81700000	    -40.26837043	      5.71841285	     -0.18940456	     -0.15342031	      1.01306415	      0.04378716	     80.17988316	     -5.68361233	      3.17434904	     74.80787558	      1.30564374	      5.95763511	    -13.59135150	      0.00000000	    111.51943596	     -5.00177823	     -2.16457444	     91.73159867	      1.60101842	      7.40778883	    -17.35077900	      0.00000000	     -0.05279721	     -1.04962835	      0.07414618	     -0.09804970	     -1.39600570	      0.07878032	     -0.08674053	     -2.55206637	      0.07878032	     -0.06034193	     -2.55206637	      0.06487791	     -0.04902749	     -2.14040213	      0.06024377	     -0.03016833	     -1.62587431	      0.05560964	     -0.37712518	    -11.87360581	      0.41237883	      0.00000000	      0.00000000	     -0.00000000	      0.00000000	      0.00000000	     67.27171245	     -9.93947463	     22.67232453	     34.26188465	     51.19626719	      0.00000000	      5.00000014	     71.34025572	    -11.83636120	     32.69090017	     35.98344100	     57.48104319	      0.00000000	      5.00000014
      3.82500000	    -40.19251832	      5.72729206	     -0.46992477	     -0.15300103	      1.01291444	      0.04361691	     80.91240916	     -5.53040852	      3.26807974	     76.85499034	      1.34137263	      5.91702696	    -14.16966290	      0.00000000	    110.56250186	     -5.19979542	     -2.18888244	     90.08581674	      1.57229411	      7.29169674	    -17.48983841	      0.00000000	     -0.05180465	     -1.03580818	      0.11864404	     -0.09620642	     -1.37762488	      0.12605929	     -0.08510986	     -2.51846401	      0.12605929	     -0.05920754	     -2.51846401	      0.10381353	     -0.04810580	     -2.11222004	      0.09639828	     -0.02960118	     -1.60446687	      0.08898303	     -0.37003545	    -11.71726931	      0.65986253	      0.00000000	      0.00000000	     -0.00000000	      0.00000000	      0.00000000	     67.27255121	    -10.05350095	     23.19954726	     34.42350423	     51.09144117	      0.00000000	      5.00000014	     71.15092697	    -11.82526027	     32.31049606	     35.98815162	     57.05016237	      0.00000000	      5.00000014
